<?xml version="1.0" encoding="utf-8"?>
<!-- Generator: Adobe Illustrator 21.1.0, SVG Export Plug-In . SVG Version: 6.00 Build 0)  -->
<svg version="1.1" id="Layer_1" xmlns="http://www.w3.org/2000/svg" xmlns:xlink="http://www.w3.org/1999/xlink" x="0px" y="0px"
	 viewBox="0 0 841.9 260" style="enable-background:new 0 0 841.9 260;" xml:space="preserve">
<style type="text/css">
	.st0{fill:#006E3C;}
</style>
<g>
	<path class="st0" d="M289.1,72.5c2.6,0,5.9,0.3,9,0.3c5.7,0,20.4-0.2,24.7-0.2c4,0,5.5-0.2,6.6-0.2c0.3,0,0.9,0.7,1,1.7
		c0.2,1.2,0.3,5.2,0.7,7.3c0.2,0.7,0,1.6-0.5,1.6c-0.3,0-0.7-0.3-1.2-1.6c-1.9-4.5-3.8-6.2-5.9-6.6c-2.4-0.3-16.8-0.3-20.2-0.3
		c-0.9,0.2-1.2,0.3-1.2,4.1v24.7c0,1.2,0.3,1.7,0.7,1.7h13.6c5,0,6.2-0.2,7.3-0.7c0.7-0.3,1.7-1.7,2.8-4.1c0.3-0.7,0.7-1.2,1-1.2
		s0.5,0.5,0.5,1.2c0,0.7-0.5,4-0.7,5.7c-0.2,1.9,0.2,5.4,0.2,6c0.3,1.6-0.3,2.1-0.7,2.1c-0.5,0-0.5-0.5-1.2-2.2
		c-0.3-1-1-2.9-2.8-3.5c-2.4-0.5-5.4-0.7-19.9-0.7c-0.7,0-0.9,0.2-0.9,2.1c0,5.5,0.3,20.6,0.3,22.6c0,1.2,0.9,4,2.8,4.8
		c1.7,0.7,3.5,1,10.7,1c9,0,11.1-0.2,13.1-2.1c1-1,2.8-3.6,3.8-5.2c1-1.4,1.6-1.9,1.9-1.9c0.3,0,0.5,0.7,0.2,1.9
		c-0.7,2.4-1.9,7.1-2.4,8.1c-0.3,0.7-1,1.2-1.7,1.2c-11.4,0-23.7-0.5-32.3-0.5c-3.6,0-9.7,0.5-10.9,0.5c-1.4,0-2.1-0.3-2.1-0.7
		c0-0.3,0.7-0.7,1.9-1c3.6-0.5,5.9-1.9,5.9-6.7c0.5-17.1,0.5-29,0.5-50.1c0-6.2-1.2-7.4-5.2-8.3c-1-0.2-1.6-0.5-1.6-1
		C287.3,72.8,288.2,72.5,289.1,72.5L289.1,72.5z"/>
	<path class="st0" d="M355.6,72.5c2.4,0.2,9,0.5,12.4,0.5c0.3,0,1,0.3,1.4,1.6c4.7,10.2,19.9,40.4,26.6,53.2c0.3,0.7,0.5,0.2,1-0.5
		c6.4-12.1,20-38.9,22.6-44.1c1.2-2.8,2.6-6.6,3.3-8.8c0.2-0.2,0.5-1.4,1-1.4c2.9,0,8.8-0.7,11.7-0.7c1,0,1.7,0.2,1.7,0.7
		c0,0.3-0.9,0.9-1.6,1c-6.4,1.6-6.7,2.8-7.1,9c-0.2,3.6-0.3,16.6-0.3,21.9c0,11.7,0.5,22.5,0.7,25.9c0.5,6.2,1.6,7.3,5.9,8.5
		c1,0.3,1.7,0.7,1.7,1.2c0,0.3-0.7,0.7-1.9,0.7c-2.1,0-7.9-0.7-10.7-0.7c-4.5,0-7.3,0.2-9,0.2c-1,0-2.2-0.2-2.2-0.9
		c0-0.3,1-0.9,2.1-1c4.5-1.2,5.4-2.9,5.5-11.9c0.3-5.9,0.3-34.7,0.3-39.6c0-1-0.3-1-0.5-0.5c-7.3,14.5-20.6,40.3-25.7,51.8
		c-0.5,1.2-1,1.9-1.6,1.9s-1.2-1.7-2.2-3.8c-5-10.9-19.3-40.8-23.5-49.2c-0.5-0.9-0.7-0.9-1,0.5c-0.3,6.2-1.6,34.2-1.6,38.7
		c0,3.6,0,5.7,0.7,7.9c0.5,2.6,2.9,3.8,5.5,4.3c1.2,0.2,1.9,0.7,1.9,1c0,0.7-1,0.9-2.1,0.7c-1.2-0.2-5.2-0.5-9-0.5s-6.7,0.7-7.9,0.7
		c-1.4,0-1.9-0.2-1.9-0.7c0-0.3,0.3-0.7,1.9-1c3.3-0.7,4.7-1.9,5.9-3.5c1-1.6,1.6-5,2.2-11.6c0.7-6.4,2.1-30.2,2.1-37.1
		c0-6.4-0.7-7.9-2.4-10.2c-1.9-2.1-3.8-2.4-5.9-2.9c-1-0.2-1.7-0.5-1.7-1C353.7,72.6,354.7,72.5,355.6,72.5L355.6,72.5z"/>
	<path class="st0" d="M457.7,72.5c2.6,0,5.9,0.3,9,0.3c5.7,0,20.4-0.2,24.7-0.2c4,0,5.5-0.2,6.6-0.2c0.3,0,0.9,0.7,1,1.7
		c0.2,1.2,0.3,5.2,0.7,7.3c0.2,0.7,0,1.6-0.5,1.6c-0.3,0-0.7-0.3-1.2-1.6c-1.9-4.5-3.8-6.2-5.9-6.6c-2.4-0.3-16.8-0.3-20.2-0.3
		c-0.9,0.2-1.2,0.3-1.2,4.1v24.7c0,1.2,0.3,1.7,0.7,1.7H485c5,0,6.2-0.2,7.3-0.7c0.7-0.3,1.7-1.7,2.8-4.1c0.3-0.7,0.7-1.2,1-1.2
		s0.5,0.5,0.5,1.2c0,0.7-0.5,4-0.7,5.7c-0.2,1.9,0.2,5.4,0.2,6c0.3,1.6-0.5,2.1-0.7,2.1c-0.3,0-0.5-0.5-1.2-2.2
		c-0.3-1-1-2.9-2.8-3.5c-2.4-0.5-5.4-0.7-19.9-0.7c-0.7,0-0.9,0.2-0.9,2.1c0,5.5,0.3,20.6,0.3,22.6c0,1.2,0.9,4,2.8,4.8
		c1.7,0.7,3.5,1,10.7,1c9,0,11.1-0.2,13.1-2.1c1-1,2.8-3.6,3.8-5.2c1-1.4,1.6-1.9,1.9-1.9s0.5,0.7,0.2,1.9c-0.7,2.4-1.9,7.1-2.4,8.1
		c-0.3,0.7-1,1.2-1.7,1.2c-11.4,0-23.7-0.5-32.3-0.5c-3.6,0-9.7,0.5-10.9,0.5c-1.4,0-2.1-0.3-2.1-0.7c0-0.3,0.7-0.7,1.9-1
		c3.6-0.5,5.9-1.9,5.9-6.7c0.5-17.1,0.5-29,0.5-50.1c0-6.2-1.2-7.4-5.2-8.3c-1-0.2-1.6-0.5-1.6-1C456.1,72.8,456.8,72.5,457.7,72.5
		L457.7,72.5z"/>
	<path class="st0" d="M537.3,74.9c-0.2,0.2-0.5,0.2-0.7,2.1c-0.2,2.1-0.2,24.5-0.2,26.4c0,1.4,0.3,1.9,0.9,1.9
		c0.5,0.2,1.9,0.2,2.6,0.2c2.8-0.2,9-0.9,11.4-2.4c2.9-2.1,6-6.4,6-12.1c0-5.5-1.6-9.7-4.3-12.4c-3.1-2.9-6.9-4.3-12.3-4.3
		C539.2,74.2,537.8,74.5,537.3,74.9L537.3,74.9z M559.1,76.3c4.7,3.3,6.7,7.9,6.7,13c0,7.1-3.6,10.2-6.2,12.1
		c-1.6,1.6-4.5,2.8-6.2,3.3c-0.5,0.2-0.3,0.9,0.2,1.9c2.1,4.1,8.1,14.2,11.6,19.2c3.3,4.7,5.5,7.6,7.9,9.8c3.3,3.3,6,4.1,8.1,4.1
		c0.7,0,1.4,0.3,1.4,0.7c0,0.2-0.3,0.7-1.2,0.9c-1,0.5-2.9,0.5-5,0.5c-6.7,0-11.4-2.9-15.7-8.6c-4.7-6.2-12.6-19.3-14.7-22.8
		c-1.4-1.9-2.4-2.8-3.8-2.9c-1-0.2-2.2-0.5-4.5-0.3c-0.3,0.2-0.9,0.5-1,1c-0.2,1.2-0.2,13.8-0.2,18c0,5.7,0.3,9.3,0.9,10.2
		c0.3,1.2,1.2,2.4,5,3.1c1.2,0.2,1.6,0.5,1.6,1c0,0.3-0.9,0.7-2.1,0.7c-1.9,0-5.2-0.5-9.2-0.5c-3.8,0-7.8,0.5-9.8,0.5
		c-1,0-1.9-0.2-1.9-0.7c0-0.3,0.7-0.7,2.1-1c3.6-0.7,4.7-1.7,5-6.2c0.3-6.2,0.5-14.7,0.5-28.2c0-15-0.3-21.8-0.7-25.4
		c-0.2-2.9-0.3-4.7-4.8-5.4c-1-0.2-1.9-0.5-1.9-1c0-0.3,0.7-0.7,1.9-0.7c1.6,0,4.7,0.3,8.5,0.3c4.5,0,7.4-0.5,13-0.5
		C551.1,72.3,555.6,73.7,559.1,76.3L559.1,76.3z"/>
	<path class="st0" d="M599.7,72.5c3.6,0,5.9,0.3,9.2,0.3c3.6,0,6.9-0.3,9.3-0.3c1,0,1.6,0.2,1.6,0.5c0,0.3-0.3,0.9-1.6,1
		c-4.3,0.7-4.5,2.2-4.7,6.7c-0.3,5.4-0.2,18-0.2,24.5c0,15.9,0.2,24.9,0.3,28.2c0.3,4.1,1,4.8,4.1,5.5c1.6,0.3,1.9,0.7,1.9,1.2
		c0,0.5-0.7,0.7-2.1,0.7c-1.7,0-4.5-0.3-7.6-0.3c-5.4,0-8.5,0.5-10.5,0.5c-1,0-1.7-0.2-1.7-0.7c0-0.3,0.5-0.7,2.4-1
		c4-0.9,4.7-2.6,4.7-9c0.2-6.2,0.2-35.9,0.2-41.1c0-5.4-0.2-8.8-0.3-10.4c-0.3-3.6-1.6-4-5.2-4.8c-0.7-0.2-1.2-0.5-1.2-0.9
		C598.3,72.8,598.7,72.5,599.7,72.5L599.7,72.5z"/>
	<path class="st0" d="M684,72.8c5,0,7.1-0.2,8.8-1.2c0.5-0.3,0.7-0.3,0.9-0.2c0.2,0.3,0.2,0.5,0.2,1.4c-0.3,1.2-0.3,4.5-0.3,8.1
		c0,1.6-0.5,2.4-0.9,2.4c-0.5,0-0.7-1-0.9-1.6c-0.2-1.9-1-4.1-1.9-5c-1-0.9-2.4-1.2-9.8-1.2c-3.3,0-8.8,0-10.5,0.2
		c-0.5,0.2-0.7,1-0.7,1.7c0,4-0.2,29-0.2,33.7c-0.2,6,0.3,19.3,0.7,22.8c0.3,3.6,1.6,4.5,5.2,5.5c1.2,0.3,1.9,0.5,1.9,1
		c0,0.7-0.7,0.7-2.1,0.7c-2.4,0-5.9-0.7-10.2-0.7c-5.5,0-8.8,0.7-10.5,0.7c-1.4,0-1.9-0.5-1.9-1c0-0.5,1-0.7,2.1-1
		c5.2-0.7,5.9-2.4,6.2-7.4c0.7-10.5,0.7-53.4,0.5-54.9c-0.2-1-0.3-1.2-0.7-1.2c-0.7-0.2-3.1-0.3-8.1-0.3c-4.5,0-7.1,0.2-9.2,0.5
		c-2.1,0.3-3.5,1.7-5,5.9c-0.5,1.2-1,1.9-1.6,1.9c-0.3,0-0.3-0.9-0.3-1.6c0.5-3.3,1.4-6.4,1.4-9.3c0.2-0.9,0.2-1.4,0.7-1.6
		c0.2-0.2,0.5,0.2,0.9,0.3c0.3,0.5,1.9,1,3.5,1c1.7,0.2,12.4,0.5,23.5,0.5L684,72.8L684,72.8z"/>
	<path class="st0" d="M731.9,72.6c1.2,0,1.7,0.3,1.7,0.7c0,0.5-0.9,0.9-1.7,1c-5.5,0.9-5.4,4.5-5.4,9.7c-0.2,10.2-0.2,24.9,0,30.2
		c0.2,7.9,2.1,14.2,5.9,18c4.1,4.3,10.2,5.9,15.2,5.9c12.3,0,20.2-6.2,20.9-27.5c0.2-4,0.3-9,0.3-12.6c0-20.6-0.9-21.9-3.8-23
		c-1-0.3-2.1-0.5-2.8-0.7c-0.9-0.2-1.6-0.7-1.6-1c0-0.5,0.5-0.7,1.7-0.7c2.2,0,4.1,0.3,7.4,0.3c2.4,0,5.2-0.3,7.8-0.3
		c1.2,0,1.9,0.2,1.9,0.5c0,0.5-0.5,0.9-2.2,1.2c-4.3,0.7-4.5,2.9-4.8,7.8c-0.5,6.6-0.5,21.1-1,27.6c-0.7,9.7-1.7,19-7.9,25.6
		c-5.5,5.9-13.8,7.1-19,7.1c-5.7,0-12.4-1.6-16.8-5c-6.6-5.2-9-11.6-9.3-24.7c-0.2-8.1-0.2-25.1-0.3-31.4c-0.5-5.4-0.7-6-5-7.3
		c-0.5-0.2-1.2-0.5-1.2-1c0-0.3,1-0.3,1.9-0.3c2.6,0,5.7,0.3,9.7,0.3C726.2,73,729.4,72.6,731.9,72.6L731.9,72.6z"/>
	<path class="st0" d="M832.1,73c0.5,0.2,0.7,0.9,0.7,1.2c0,2.9,0.3,6,0.5,7.3c0.2,1.4-0.2,2.1-0.5,2.1c-0.3,0-0.7-0.5-1-1.7
		c-0.9-2.8-1.9-5-4.1-6.4c-2.4-1.9-5.9-2.8-8.8-2.8c-5,0-12.6,4.3-12.6,13.3c0,5.9,3.8,9.8,7.6,12.4c4.1,2.8,7.6,5.4,11.1,7.8
		c4.1,2.9,10.2,7.8,10.2,17.1c0,11.9-11.4,19.2-22.5,19.2c-4.7,0-11.4-1.2-14.7-2.9c-1.2-0.7-1.6-1.4-1.9-2.9c-0.2-1.7-1-5.4-1-7.9
		c-0.2-1.2,0.2-2.1,0.5-2.1c0.5,0,0.7,0.7,1.2,2.1c1.9,8.1,9,11.7,15.9,11.7c8.6,0,14.2-6.9,14.2-14c0-7.3-5.2-11.4-13-16.6
		c-8.3-5.5-14.9-11.4-14.9-20.7c0-5.9,2.6-10.5,6.9-13.8c2.9-2.2,7.6-4.3,13.8-4.3C824.8,71.1,830.2,72.5,832.1,73L832.1,73z"/>
	<path class="st0" d="M342.3,169c0.9,0,1.6,0.2,2.4,0.2s1.7-0.2,2.4-0.2c0.2,0,0.3,0,0.3,0.2s-0.2,0.2-0.3,0.2
		c-1.2,0.2-1.2,0.5-1.2,1.7c0,1.4,0,4.7,0,6.4c0,4.1,0,6.6,0.2,7.4c0,1,0.2,1.2,1,1.6c0.3,0,0.5,0.2,0.5,0.3s-0.2,0.2-0.5,0.2
		c-0.5,0-1.2,0-1.9,0c-1.4,0-2.2,0.2-2.8,0.2c-0.2,0-0.5,0-0.5-0.2c0,0,0.2-0.2,0.7-0.3c1-0.2,1.2-0.7,1.2-2.4c0-1.6,0-9.5,0-10.7
		c0-1.4,0-2.2-0.2-2.8c-0.2-0.9-0.3-1-1.4-1.2c-0.2,0-0.3-0.2-0.3-0.2S342.1,169,342.3,169L342.3,169z"/>
	<path class="st0" d="M352.8,169c0.9,0,2.4,0.2,3.5,0.2c0.2,0,0.2,0,0.7,0.5c1.9,2.4,9.2,10.5,11.6,13.3c0,0,0.2,0,0.2-0.2
		c0-1,0-8.8-0.2-11.2c0-1.7-0.7-1.9-1.6-2.2c-0.3,0-0.5-0.2-0.5-0.2c0-0.2,0.2-0.2,0.5-0.2c0.5,0,1.4,0.2,1.9,0.2
		c0.9,0,1.6-0.2,1.9-0.2s0.5,0,0.5,0.2s-0.2,0.2-0.5,0.3c-1,0.3-1.2,1-1.2,1.7c-0.2,1-0.2,7.1-0.2,9.7s0,4.3,0,5.7
		c0,0.5,0,0.9-0.2,0.9c-0.2,0-0.5-0.3-1-1c-1.6-2.1-8.8-10.4-12.6-14.7c-0.2-0.2-0.2-0.2-0.2,0c0,1,0,10.2,0,11.6
		c0,1.2,0,1.9,0.3,2.4c0.2,0.5,0.9,0.7,1.4,0.9c0.3,0,0.5,0.2,0.5,0.3s-0.3,0.2-0.5,0.2c-0.5,0-1.2-0.2-2.1-0.2s-1.7,0.2-1.9,0.2
		c-0.3,0-0.5,0-0.5-0.2s0.2-0.2,0.5-0.3c1-0.3,1.4-0.5,1.6-2.2c0.2-1,0.3-10,0.3-12.3c0-1.7-0.2-1.9-0.5-2.1
		c-0.3-0.3-0.7-0.3-1.4-0.5c-0.3,0-0.5-0.2-0.5-0.2C352.3,169,352.5,169,352.8,169L352.8,169z"/>
	<path class="st0" d="M385.5,169.2c0.2,0,0.2,0.2,0.2,0.3c0,0.7,0,1.6,0.2,1.9c0,0.3,0,0.5-0.2,0.5c-0.2,0-0.2-0.2-0.2-0.5
		c-0.2-0.7-0.5-1.4-1-1.7c-0.7-0.5-1.6-0.7-2.2-0.7c-1.4,0-3.3,1.2-3.3,3.5c0,1.6,1,2.6,2.1,3.3c1,0.7,2.1,1.4,2.9,2.1
		c1,0.7,2.6,2.1,2.6,4.5c0,3.1-2.9,5-5.9,5c-1.2,0-2.9-0.3-3.8-0.9c-0.3-0.2-0.3-0.3-0.5-0.7c0-0.5-0.3-1.4-0.3-2.1
		c0-0.3,0-0.5,0.2-0.5c0.2,0,0.2,0.2,0.3,0.5c0.5,2.1,2.2,3.1,4.1,3.1c2.2,0,3.6-1.7,3.6-3.6c0-1.9-1.4-2.9-3.5-4.3
		c-2.2-1.4-3.8-2.9-3.8-5.4c0-1.6,0.7-2.8,1.7-3.6c0.7-0.5,2.1-1.2,3.6-1.2C383.6,168.7,384.9,169,385.5,169.2L385.5,169.2z"/>
	<path class="st0" d="M403.4,169c1.4,0,1.9,0,2.2-0.3c0.2,0,0.2-0.2,0.2,0c0,0,0,0.2,0,0.3c-0.2,0.3-0.2,1.2,0,2.1
		c0,0.3-0.2,0.7-0.2,0.7c-0.2,0-0.2-0.2-0.2-0.3c0-0.5-0.3-1-0.5-1.4c-0.2-0.2-0.7-0.3-2.6-0.3c-0.9,0-2.2,0-2.8,0
		c-0.2,0-0.2,0.2-0.2,0.5c0,1,0,7.6,0,8.8c0,1.6,0,5,0.2,5.9c0.2,1,0.3,1.2,1.4,1.4c0.3,0,0.5,0.2,0.5,0.3s-0.2,0.2-0.5,0.2
		c-0.7,0-1.6-0.2-2.6-0.2c-1.4,0-2.2,0.2-2.8,0.2c-0.3,0-0.5-0.2-0.5-0.2c0-0.2,0.2-0.2,0.5-0.2c1.4-0.2,1.6-0.7,1.6-1.9
		c0.2-2.8,0.2-14,0.2-14.3c0-0.2-0.2-0.3-0.2-0.3c-0.2,0-0.9,0-2.1,0c-1.2,0-1.9,0-2.4,0.2s-0.9,0.5-1.2,1.6
		c-0.2,0.3-0.3,0.5-0.3,0.5c-0.2,0-0.2-0.2,0-0.3c0.2-0.9,0.3-1.7,0.3-2.4c0-0.2,0-0.3,0.2-0.3c0,0,0.2,0,0.2,0.2
		c0.2,0.2,0.5,0.2,0.9,0.3c0.5,0,3.3,0.2,6,0.2L403.4,169L403.4,169z"/>
	<path class="st0" d="M411.2,169c0.9,0,1.6,0.2,2.4,0.2c0.9,0,1.7-0.2,2.4-0.2c0.2,0,0.3,0,0.3,0.2s-0.2,0.2-0.3,0.2
		c-1.2,0.2-1.2,0.5-1.2,1.7c0,1.4,0,4.7,0,6.4c0,4.1,0,6.6,0.2,7.4c0,1,0.2,1.2,1,1.6c0.3,0,0.5,0.2,0.5,0.3s-0.2,0.2-0.5,0.2
		c-0.5,0-1.2,0-1.9,0c-1.4,0-2.2,0.2-2.8,0.2c-0.2,0-0.5,0-0.5-0.2c0,0,0.2-0.2,0.7-0.3c1-0.2,1.2-0.7,1.2-2.4c0-1.6,0-9.5,0-10.7
		c0-1.4,0-2.2-0.2-2.8c-0.2-0.9-0.3-1-1.4-1.2c-0.2,0-0.3-0.2-0.3-0.2S410.9,169,411.2,169L411.2,169z"/>
	<path class="st0" d="M433.1,169c1.4,0,1.9,0,2.2-0.3c0.2,0,0.2-0.2,0.2,0c0,0,0,0.2,0,0.3c-0.2,0.3-0.2,1.2,0,2.1
		c0,0.3-0.2,0.7-0.2,0.7c-0.2,0-0.2-0.2-0.2-0.3c0-0.5-0.3-1-0.5-1.4c-0.2-0.2-0.7-0.3-2.6-0.3c-0.9,0-2.2,0-2.8,0
		c-0.2,0-0.2,0.2-0.2,0.5c0,1,0,7.6,0,8.8c0,1.6,0,5,0.2,5.9c0.2,1,0.3,1.2,1.4,1.4c0.3,0,0.5,0.2,0.5,0.3s-0.2,0.2-0.5,0.2
		c-0.7,0-1.6-0.2-2.6-0.2c-1.4,0-2.2,0.2-2.8,0.2c-0.3,0-0.5-0.2-0.5-0.2c0-0.2,0.2-0.2,0.5-0.2c1.4-0.2,1.6-0.7,1.6-1.9
		c0.2-2.8,0.2-14,0.2-14.3c0-0.2-0.2-0.3-0.2-0.3c-0.2,0-0.9,0-2.1,0s-1.9,0-2.4,0.2s-0.9,0.5-1.2,1.6c-0.2,0.3-0.3,0.5-0.3,0.5
		c-0.2,0-0.2-0.2,0-0.3c0.2-0.9,0.3-1.7,0.3-2.4c0-0.2,0-0.3,0.2-0.3c0,0,0.2,0,0.2,0.2c0.2,0.2,0.5,0.2,0.9,0.3
		c0.5,0,3.3,0.2,6,0.2L433.1,169L433.1,169z"/>
	<path class="st0" d="M445.6,169c0.3,0,0.5,0,0.5,0.2s-0.2,0.2-0.5,0.3c-1.4,0.2-1.4,1.2-1.4,2.6c0,2.8,0,6.6,0,7.9
		c0,2.1,0.5,3.8,1.6,4.7c1,1.2,2.6,1.6,4,1.6c3.1,0,5.2-1.6,5.5-7.3c0-1,0-2.4,0-3.3c0-5.4-0.2-5.7-1-6c-0.2-0.2-0.5-0.2-0.7-0.2
		c-0.2,0-0.3-0.2-0.3-0.2c0-0.2,0.2-0.2,0.5-0.2c0.5,0,1,0,1.9,0c0.7,0,1.4,0,2.1,0c0.3,0,0.5,0,0.5,0.2s-0.2,0.2-0.5,0.3
		c-1,0.2-1.2,0.7-1.2,2.1c-0.2,1.7-0.2,5.5-0.2,7.3c-0.2,2.6-0.5,5-2.1,6.7c-1.4,1.6-3.6,1.9-5,1.9c-1.6,0-3.3-0.3-4.3-1.4
		c-1.7-1.4-2.2-2.9-2.4-6.4c0-2.1,0-6.6-0.2-8.3c-0.2-1.4-0.2-1.6-1.4-1.9c-0.2,0-0.3-0.2-0.3-0.3c0-0.2,0.2-0.2,0.5-0.2
		c0.7,0,1.6,0.2,2.4,0.2C444.2,169.2,444.9,169,445.6,169L445.6,169z"/>
	<path class="st0" d="M474.6,169c1.4,0,1.9,0,2.2-0.3c0.2,0,0.2-0.2,0.2,0c0,0,0,0.2,0,0.3c-0.2,0.3-0.2,1.2,0,2.1
		c0,0.3-0.2,0.7-0.2,0.7c-0.2,0-0.2-0.2-0.2-0.3c0-0.5-0.3-1-0.5-1.4c-0.2-0.2-0.7-0.3-2.6-0.3c-0.9,0-2.2,0-2.8,0
		c-0.2,0-0.2,0.2-0.2,0.5c0,1,0,7.6,0,8.8c0,1.6,0,5,0.2,5.9c0.2,1,0.3,1.2,1.4,1.4c0.3,0,0.5,0.2,0.5,0.3s-0.2,0.2-0.5,0.2
		c-0.7,0-1.6-0.2-2.6-0.2c-1.4,0-2.2,0.2-2.8,0.2c-0.3,0-0.5-0.2-0.5-0.2c0-0.2,0.2-0.2,0.5-0.2c1.4-0.2,1.6-0.7,1.6-1.9
		c0.2-2.8,0.2-14,0.2-14.3c0-0.2-0.2-0.3-0.2-0.3c-0.2,0-0.9,0-2.1,0c-1.2,0-1.9,0-2.4,0.2s-0.9,0.5-1.2,1.6
		c-0.2,0.3-0.3,0.5-0.3,0.5c-0.2,0-0.2-0.2,0-0.3c0.2-0.9,0.3-1.7,0.3-2.4c0-0.2,0-0.3,0.2-0.3c0,0,0.2,0,0.2,0.2
		c0.2,0.2,0.5,0.2,0.9,0.3c0.5,0,3.3,0.2,6,0.2L474.6,169L474.6,169z"/>
	<path class="st0" d="M482.4,169c0.7,0,1.6,0.2,2.4,0.2c1.6,0,5.4,0,6.4,0s1.4,0,1.7,0c0.2,0,0.2,0.2,0.3,0.5c0,0.3,0,1.4,0.2,1.9
		c0,0.2,0,0.3-0.2,0.3c0,0-0.2,0-0.3-0.3c-0.5-1.2-1-1.6-1.6-1.7c-0.7-0.2-4.3-0.2-5.2,0c-0.2,0-0.3,0-0.3,1v6.4
		c0,0.3,0,0.5,0.2,0.5h3.5c1.2,0,1.6,0,1.9-0.2c0.2-0.2,0.5-0.5,0.7-1c0-0.2,0.2-0.3,0.3-0.3c0,0,0.2,0.2,0.2,0.3
		c0,0.2-0.2,1-0.2,1.6s0,1.4,0,1.6c0,0.3-0.2,0.5-0.2,0.5c-0.2,0-0.2-0.2-0.3-0.5c0-0.2-0.3-0.9-0.7-0.9c-0.7-0.2-1.4-0.2-5.2-0.2
		c-0.2,0-0.2,0-0.2,0.5c0,1.4,0,5.4,0,5.9c0,0.3,0.2,1,0.7,1.2s0.9,0.3,2.8,0.3c2.4,0,2.9,0,3.5-0.5c0.3-0.3,0.7-1,1-1.4
		c0.3-0.3,0.3-0.5,0.5-0.5c0.2,0,0.2,0.2,0,0.5c-0.2,0.7-0.5,1.9-0.7,2.1s-0.2,0.3-0.5,0.3c-2.9,0-6.2-0.2-8.5-0.2
		c-1,0-2.6,0.2-2.8,0.2c-0.3,0-0.5,0-0.5-0.2s0.2-0.2,0.5-0.2c1-0.2,1.6-0.5,1.6-1.7c0.2-4.5,0.2-7.6,0.2-13.1
		c0-1.6-0.3-1.9-1.4-2.2c-0.3,0-0.3-0.2-0.3-0.2C482,169,482.2,169,482.4,169L482.4,169z"/>
	<path class="st0" d="M517.6,171.1c-1.4,1.7-2.1,4.3-2.1,6.6c0,2.2,0.9,4.7,2.2,6.2c1.7,2.2,3.6,2.9,5.2,2.9c1,0,2.1-0.3,2.9-1.2
		c1.4-1,3.1-3.5,3.1-7.4c0-2.4-0.9-4.8-2.4-6.9c-1-1.2-2.6-2.2-4.8-2.2C520.2,169,518.5,170.2,517.6,171.1L517.6,171.1z
		 M531.4,178.2c0,4.5-3.1,7.4-5.2,8.3c-1,0.5-2.4,0.9-3.6,0.9c-5,0-9.2-4.3-9.2-9.5c0-2.8,1-5.4,3.6-7.4c1.4-1.2,3.6-1.7,5.5-1.7
		C527.3,168.7,531.4,173,531.4,178.2L531.4,178.2z"/>
	<path class="st0" d="M547.5,169c0.5,0,0.9,0.2,0.9,0.3c0,0.3,0.2,1.6,0.2,1.9s0,0.5-0.2,0.5c-0.2,0-0.2-0.2-0.3-0.5
		c-0.5-1-1-1.6-2.1-1.6c-0.9,0-2.1,0-4.7,0c-0.2,0-0.3,0.3-0.3,0.5c0,0.9,0,4,0,7.3c0,0.2,0.2,0.3,0.2,0.3c2.9,0,4.1,0,4.7,0
		c0.3,0,0.9-0.2,1.2-1c0.2-0.3,0.2-0.3,0.3-0.3c0.2,0,0.2,0.2,0.2,0.3c0,0.3-0.2,1.2-0.2,1.7s0,1,0.2,1.4c0,0.3,0,0.5-0.2,0.5
		c-0.2,0-0.2-0.2-0.3-0.7c-0.2-0.7-0.5-0.9-0.9-1c-0.5,0-0.9-0.2-4.8-0.2c0,0-0.3,0.2-0.3,0.3c0,0.5,0,4.8,0,6.2
		c0,1,0.2,1.2,1.6,1.6c0.2,0,0.3,0.2,0.3,0.2c0,0.2-0.3,0.2-0.5,0.2c-0.3,0-1.6-0.2-2.8-0.2c-1,0-1.7,0.2-2.2,0.2
		c-0.2,0-0.5,0-0.5-0.2s0.2-0.2,0.5-0.3c1-0.2,1.2-0.5,1.2-1.6c0-0.9,0-4.5,0-7.6c0-2.9,0-4.7,0-6.4c0-1-0.2-1.2-1.2-1.6
		c-0.2,0-0.5-0.2-0.5-0.3s0.2-0.2,0.3-0.2c0.3,0,1.9,0.2,3.1,0.2C543.4,169.2,546.5,169,547.5,169L547.5,169z"/>
	<path class="st0" d="M567,169c0.7,0,2.4,0.2,3.3,0.2c0.2,0,0.2,0.2,0.3,0.3c1.2,2.8,5.2,10.5,6.9,14c0,0.2,0.2,0,0.2-0.2
		c1.7-3.1,5.2-10.2,5.9-11.6c0.3-0.7,0.7-1.7,0.9-2.2c0,0,0.2-0.3,0.3-0.3c0.9,0,2.2-0.2,3.1-0.2c0.3,0,0.5,0,0.5,0.2
		s-0.2,0.2-0.3,0.2c-1.7,0.3-1.7,0.7-1.9,2.4c0,1,0,4.3,0,5.7c0,3.1,0.2,5.9,0.2,6.7c0.2,1.6,0.3,1.9,1.6,2.2c0.2,0,0.5,0.2,0.5,0.3
		c0,0.2-0.2,0.2-0.5,0.2c-0.5,0-2.1-0.2-2.8-0.2c-1.2,0-1.9,0-2.2,0c-0.3,0-0.5,0-0.5-0.2s0.3-0.2,0.5-0.2c1.2-0.3,1.4-0.7,1.4-3.1
		c0-1.6,0-9.2,0-10.4c0-0.3,0-0.3-0.2-0.2c-1.9,3.8-5.4,10.5-6.7,13.6c-0.2,0.3-0.2,0.5-0.3,0.5c-0.2,0-0.3-0.5-0.5-1
		c-1.4-2.9-5-10.7-6-13c-0.2-0.2-0.2-0.2-0.2,0.2c-0.2,1.6-0.3,9-0.3,10.2c0,0.9,0,1.6,0.2,2.1c0.2,0.7,0.9,1,1.4,1.2
		c0.3,0,0.5,0.2,0.5,0.3c0,0.2-0.2,0.2-0.5,0.2c-0.3,0-1.4-0.2-2.4-0.2s-1.7,0.2-2.1,0.2c-0.3,0-0.5,0-0.5-0.2c0,0,0.2-0.2,0.5-0.3
		c0.9-0.2,1.2-0.5,1.6-0.9s0.3-1.4,0.5-3.1c0.2-1.7,0.5-7.9,0.5-9.7s-0.2-2.1-0.7-2.6c-0.5-0.5-1-0.7-1.6-0.7
		c-0.2,0-0.5-0.2-0.5-0.2C566.5,169,566.7,169,567,169L567,169z"/>
	<path class="st0" d="M603,178.2c-1.2-3.1-1.9-5-2.2-5.9c0-0.2-0.2-0.2-0.2,0c-0.7,1.6-1.9,4.8-2.2,6v0.2c0.5,0,1.2,0,2.2,0
		s2.1,0,2.4-0.2C603,178.5,603,178.4,603,178.2L603,178.2z M601.8,168.9c0,0.7,0.3,1.4,0.7,2.4c1.9,5.2,3.5,9.2,5.2,13.1
		c0.7,1.7,1,1.9,1.7,2.1c0.3,0,0.5,0.2,0.5,0.2c0,0.2-0.2,0.2-0.5,0.2c-0.5,0-1,0-2.4,0c-1,0-2.1,0.2-2.8,0.2c-0.3,0-0.5,0-0.5-0.2
		s0.2-0.2,0.5-0.2c1.2-0.2,1.2-0.7,1.2-1.2c0-0.5-1-2.9-1.9-5.5c0-0.2-0.2-0.3-0.3-0.3c-1,0-4.7,0-5.2,0c-0.2,0-0.3,0.3-0.3,0.5
		c-0.2,0.7-1,2.8-1.4,4.1c-0.3,1-0.3,1.6,0,1.9c0.2,0.2,0.7,0.3,1.2,0.5c0.3,0,0.3,0.2,0.3,0.3s-0.2,0.2-0.5,0.2
		c-0.5,0-1.7-0.2-2.8-0.2c-0.7,0-1.2,0.2-1.9,0.2c-0.3,0-0.5,0-0.5-0.2s0.3-0.2,0.5-0.2c1.2-0.2,1.6-0.5,2.6-2.9
		c0.9-1.7,3.3-7.9,4.8-12.1c0.2-0.3,0.2-0.5,0.2-0.9c0-0.2,0-0.3,0-0.3c0.3-0.2,0.9-0.9,1-1.4c0-0.2,0-0.3,0.2-0.3
		C601.8,168.7,601.8,168.9,601.8,168.9L601.8,168.9z"/>
	<path class="st0" d="M614.5,169c0.9,0,2.4,0.2,3.5,0.2c0.2,0,0.2,0,0.7,0.5c1.9,2.4,9.2,10.5,11.6,13.3c0,0,0.2,0,0.2-0.2
		c0-1,0-8.8-0.2-11.2c0-1.7-0.7-1.9-1.6-2.2c-0.3,0-0.5-0.2-0.5-0.2c0-0.2,0.2-0.2,0.5-0.2c0.5,0,1.4,0.2,1.9,0.2
		c0.9,0,1.6-0.2,1.9-0.2c0.3,0,0.5,0,0.5,0.2s-0.2,0.2-0.5,0.3c-1,0.3-1.2,1-1.2,1.7c-0.2,1-0.2,7.1-0.2,9.7s0,4.3,0,5.7
		c0,0.5,0,0.9-0.2,0.9s-0.5-0.3-1-1c-1.6-2.1-8.8-10.4-12.6-14.7c-0.2-0.2-0.2-0.2-0.2,0c0,1,0,10.2,0,11.6c0,1.2,0,1.9,0.3,2.4
		c0.2,0.5,0.9,0.7,1.4,0.9c0.3,0,0.5,0.2,0.5,0.3s-0.3,0.2-0.5,0.2c-0.5,0-1.2-0.2-2.1-0.2s-1.7,0.2-1.9,0.2c-0.3,0-0.5,0-0.5-0.2
		s0.2-0.2,0.5-0.3c1-0.3,1.4-0.5,1.6-2.2c0.2-1,0.3-10,0.3-12.3c0-1.7-0.2-1.9-0.5-2.1c-0.3-0.3-0.7-0.3-1.4-0.5
		c-0.3,0-0.5-0.2-0.5-0.2C614,169,614,169,614.5,169L614.5,169z"/>
	<path class="st0" d="M647.2,178.2c-1.2-3.1-1.9-5-2.2-5.9c0-0.2-0.2-0.2-0.2,0c-0.7,1.6-1.9,4.8-2.2,6v0.2c0.5,0,1.2,0,2.2,0
		s2.1,0,2.4-0.2C647.2,178.5,647.2,178.4,647.2,178.2L647.2,178.2z M646,168.9c0,0.7,0.3,1.4,0.7,2.4c1.9,5.2,3.5,9.2,5.2,13.1
		c0.7,1.7,1,1.9,1.7,2.1c0.3,0,0.5,0.2,0.5,0.2c0,0.2-0.2,0.2-0.5,0.2c-0.5,0-1,0-2.4,0c-1,0-2.1,0.2-2.8,0.2c-0.3,0-0.5,0-0.5-0.2
		s0.2-0.2,0.5-0.2c1.2-0.2,1.2-0.7,1.2-1.2c0-0.5-1-2.9-1.9-5.5c0-0.2-0.2-0.3-0.3-0.3c-1,0-4.7,0-5.2,0c-0.2,0-0.3,0.3-0.3,0.5
		c-0.2,0.7-1,2.8-1.4,4.1c-0.3,1-0.3,1.6,0,1.9c0.2,0.2,0.7,0.3,1.2,0.5c0.3,0,0.3,0.2,0.3,0.3s-0.2,0.2-0.5,0.2
		c-0.5,0-1.7-0.2-2.8-0.2c-0.7,0-1.2,0.2-1.9,0.2c-0.3,0-0.5,0-0.5-0.2s0.3-0.2,0.5-0.2c1.2-0.2,1.6-0.5,2.6-2.9
		c0.9-1.7,3.3-7.9,4.8-12.1c0.2-0.3,0.2-0.5,0.2-0.9c0-0.2,0-0.3,0-0.3c0.3-0.2,0.9-0.9,1-1.4c0-0.2,0-0.3,0.2-0.3
		C645.8,168.7,646,168.9,646,168.9L646,168.9z"/>
	<path class="st0" d="M671.6,169.2c0.7,0.2,1.6,0.5,1.9,0.7c0.2,0,0.3,0.3,0.3,0.7l0.2,1.9c0,0.3,0,0.5-0.2,0.5
		c-0.2,0-0.2,0-0.3-0.5c-0.9-2.1-2.4-3.3-5.4-3.3c-1.9,0-4,0.9-5.2,2.2c-1.4,1.6-2.4,3.8-2.4,6.7c0,3.3,1.7,5.9,3.3,7.1
		c1.2,1,2.8,1.6,4.3,1.6c1.2,0,2.4-0.5,3.1-1.2c0.3-0.3,0.3-0.9,0.3-1.6c0-0.5,0.2-2.4,0-3.3c0-1-0.3-1.2-1.6-1.6
		c-0.3,0-0.5-0.2-0.5-0.2c0-0.2,0.2-0.2,0.7-0.2c0.7,0,1.4,0.2,2.4,0.2c0.9,0,1.6,0,1.7,0c0.3,0,0.5,0,0.5,0.2
		c0,0.2-0.3,0.2-0.5,0.3c-0.5,0.2-0.7,0.3-0.7,1.9c0,1.4,0.2,3.1,0.2,3.6c0,0.3,0,0.5-0.2,0.7c-0.3,0.2-0.9,0.3-1.4,0.7
		c-1.2,0.5-2.8,1-4.3,1c-2.9,0-5.4-1-7.1-2.6c-2.1-1.7-3.1-4-3.1-6.7c0-2.9,1.2-5.4,3.8-7.4c1.2-0.9,3.1-2.1,6.6-2.1
		C669.8,168.7,670.9,169,671.6,169.2L671.6,169.2z"/>
	<path class="st0" d="M680.7,169c0.7,0,1.6,0.2,2.4,0.2c1.6,0,5.4,0,6.4,0c1,0,1.4,0,1.7,0c0.2,0,0.2,0.2,0.3,0.5
		c0,0.3,0,1.4,0.2,1.9c0,0.2,0,0.3-0.2,0.3c0,0-0.2,0-0.3-0.3c-0.5-1.2-1-1.6-1.6-1.7c-0.7-0.2-4.3-0.2-5.2,0c-0.2,0-0.3,0-0.3,1
		v6.4c0,0.3,0,0.5,0.2,0.5h3.5c1.2,0,1.6,0,1.9-0.2c0.2-0.2,0.5-0.5,0.7-1c0-0.2,0.2-0.3,0.3-0.3c0,0,0.2,0.2,0.2,0.3
		c0,0.2-0.2,1-0.2,1.6s0,1.4,0,1.6c0,0.3-0.2,0.5-0.2,0.5c-0.2,0-0.2-0.2-0.3-0.5c0-0.2-0.3-0.9-0.7-0.9c-0.7-0.2-1.4-0.2-5.2-0.2
		c-0.2,0-0.2,0-0.2,0.5c0,1.4,0,5.4,0,5.9c0,0.3,0.2,1,0.7,1.2c0.5,0.2,0.9,0.3,2.8,0.3c2.4,0,2.9,0,3.5-0.5c0.3-0.3,0.7-1,1-1.4
		c0.3-0.3,0.3-0.5,0.5-0.5s0.2,0.2,0,0.5c-0.2,0.7-0.5,1.9-0.7,2.1c-0.2,0.2-0.2,0.3-0.5,0.3c-2.9,0-6.2-0.2-8.5-0.2
		c-1,0-2.6,0.2-2.8,0.2c-0.3,0-0.5,0-0.5-0.2s0.2-0.2,0.5-0.2c1-0.2,1.6-0.5,1.6-1.7c0.2-4.5,0.2-7.6,0.2-13.1
		c0-1.6-0.3-1.9-1.4-2.2c-0.3,0-0.3-0.2-0.3-0.2C680.2,169,680.4,169,680.7,169L680.7,169z"/>
	<path class="st0" d="M698,169c0.7,0,2.4,0.2,3.3,0.2c0.2,0,0.2,0.2,0.3,0.3c1.2,2.8,5.2,10.5,6.9,14c0,0.2,0.2,0,0.2-0.2
		c1.7-3.1,5.2-10.2,5.9-11.6c0.3-0.7,0.7-1.7,0.9-2.2c0,0,0.2-0.3,0.3-0.3c0.9,0,2.2-0.2,3.1-0.2c0.3,0,0.5,0,0.5,0.2
		s-0.2,0.2-0.3,0.2c-1.7,0.3-1.7,0.7-1.9,2.4c0,1,0,4.3,0,5.7c0,3.1,0.2,5.9,0.2,6.7c0.2,1.6,0.3,1.9,1.6,2.2c0.2,0,0.5,0.2,0.5,0.3
		c0,0.2-0.2,0.2-0.5,0.2c-0.5,0-2.1-0.2-2.8-0.2c-1.2,0-1.9,0-2.2,0c-0.3,0-0.5,0-0.5-0.2s0.3-0.2,0.5-0.2c1.2-0.3,1.4-0.7,1.4-3.1
		c0-1.6,0-9.2,0-10.4c0-0.3,0-0.3-0.2-0.2c-1.9,3.8-5.4,10.5-6.7,13.6c-0.2,0.3-0.2,0.5-0.3,0.5c-0.2,0-0.3-0.5-0.5-1
		c-1.4-2.9-5-10.7-6-13c-0.2-0.2-0.2-0.2-0.2,0.2c-0.2,1.6-0.3,9-0.3,10.2c0,0.9,0,1.6,0.2,2.1c0.2,0.7,0.9,1,1.4,1.2
		c0.3,0,0.5,0.2,0.5,0.3c0,0.2-0.2,0.2-0.5,0.2s-1.4-0.2-2.4-0.2c-1,0-1.7,0.2-2.1,0.2s-0.5,0-0.5-0.2c0,0,0.2-0.2,0.5-0.3
		c0.9-0.2,1.2-0.5,1.6-0.9c0.3-0.3,0.3-1.4,0.5-3.1s0.5-7.9,0.5-9.7s-0.2-2.1-0.7-2.6c-0.5-0.5-1-0.7-1.6-0.7
		c-0.2,0-0.5-0.2-0.5-0.2C697.5,169,697.8,169,698,169L698,169z"/>
	<path class="st0" d="M724.6,169c0.7,0,1.6,0.2,2.4,0.2c1.6,0,5.4,0,6.4,0c1,0,1.4,0,1.7,0c0.2,0,0.2,0.2,0.3,0.5
		c0,0.3,0,1.4,0.2,1.9c0,0.2,0,0.3-0.2,0.3c0,0-0.2,0-0.3-0.3c-0.5-1.2-1-1.6-1.6-1.7c-0.7-0.2-4.3-0.2-5.2,0c-0.2,0-0.3,0-0.3,1
		v6.4c0,0.3,0,0.5,0.2,0.5h3.5c1.2,0,1.6,0,1.9-0.2c0.2-0.2,0.5-0.5,0.7-1c0-0.2,0.2-0.3,0.3-0.3c0,0,0.2,0.2,0.2,0.3
		c0,0.2-0.2,1-0.2,1.6s0,1.4,0,1.6c0,0.3-0.2,0.5-0.2,0.5c-0.2,0-0.2-0.2-0.3-0.5c0-0.2-0.3-0.9-0.7-0.9c-0.7-0.2-1.4-0.2-5.2-0.2
		c-0.2,0-0.2,0-0.2,0.5c0,1.4,0,5.4,0,5.9c0,0.3,0.2,1,0.7,1.2c0.5,0.2,0.9,0.3,2.8,0.3c2.4,0,2.9,0,3.5-0.5c0.3-0.3,0.7-1,1-1.4
		c0.3-0.3,0.3-0.5,0.5-0.5s0.2,0.2,0,0.5c-0.2,0.7-0.5,1.9-0.7,2.1c-0.2,0.2-0.2,0.3-0.5,0.3c-2.9,0-6.2-0.2-8.5-0.2
		c-1,0-2.6,0.2-2.8,0.2c-0.3,0-0.5,0-0.5-0.2s0.2-0.2,0.5-0.2c1-0.2,1.6-0.5,1.6-1.7c0.2-4.5,0.2-7.6,0.2-13.1
		c0-1.6-0.3-1.9-1.4-2.2c-0.3,0-0.3-0.2-0.3-0.2C724.3,169,724.4,169,724.6,169L724.6,169z"/>
	<path class="st0" d="M741.4,169c0.9,0,2.4,0.2,3.5,0.2c0.2,0,0.2,0,0.7,0.5c1.9,2.4,9.2,10.5,11.6,13.3c0,0,0.2,0,0.2-0.2
		c0-1,0-8.8-0.2-11.2c0-1.7-0.7-1.9-1.6-2.2c-0.3,0-0.5-0.2-0.5-0.2c0-0.2,0.2-0.2,0.5-0.2c0.5,0,1.4,0.2,1.9,0.2
		c0.9,0,1.6-0.2,1.9-0.2c0.3,0,0.5,0,0.5,0.2s-0.2,0.2-0.5,0.3c-1,0.3-1.2,1-1.2,1.7c-0.2,1-0.2,7.1-0.2,9.7s0,4.3,0,5.7
		c0,0.5,0,0.9-0.2,0.9c-0.2,0-0.5-0.3-1-1c-1.6-2.1-8.8-10.4-12.6-14.7c-0.2-0.2-0.2-0.2-0.2,0c0,1,0,10.2,0,11.6
		c0,1.2,0,1.9,0.3,2.4c0.2,0.5,0.9,0.7,1.4,0.9c0.3,0,0.5,0.2,0.5,0.3s-0.3,0.2-0.5,0.2c-0.5,0-1.2-0.2-2.1-0.2s-1.7,0.2-1.9,0.2
		c-0.3,0-0.5,0-0.5-0.2s0.2-0.2,0.5-0.3c1-0.3,1.4-0.5,1.6-2.2c0.2-1,0.3-10,0.3-12.3c0-1.7-0.2-1.9-0.5-2.1
		c-0.3-0.3-0.7-0.3-1.4-0.5c-0.3,0-0.5-0.2-0.5-0.2C740.8,169,740.8,169,741.4,169L741.4,169z"/>
	<path class="st0" d="M776.6,169c1.4,0,1.9,0,2.2-0.3c0.2,0,0.2-0.2,0.2,0c0,0,0,0.2,0,0.3c-0.2,0.3-0.2,1.2,0,2.1
		c0,0.3-0.2,0.7-0.2,0.7c-0.2,0-0.2-0.2-0.2-0.3c0-0.5-0.3-1-0.5-1.4c-0.2-0.2-0.7-0.3-2.6-0.3c-0.9,0-2.2,0-2.8,0
		c-0.2,0-0.2,0.2-0.2,0.5c0,1,0,7.6,0,8.8c0,1.6,0,5,0.2,5.9c0.2,1,0.3,1.2,1.4,1.4c0.3,0,0.5,0.2,0.5,0.3s-0.2,0.2-0.5,0.2
		c-0.7,0-1.6-0.2-2.6-0.2c-1.4,0-2.2,0.2-2.8,0.2c-0.3,0-0.5-0.2-0.5-0.2c0-0.2,0.2-0.2,0.5-0.2c1.4-0.2,1.6-0.7,1.6-1.9
		c0.2-2.8,0.2-14,0.2-14.3c0-0.2-0.2-0.3-0.2-0.3c-0.2,0-0.9,0-2.1,0s-1.9,0-2.4,0.2c-0.5,0.2-0.9,0.5-1.2,1.6
		c-0.2,0.3-0.3,0.5-0.3,0.5c-0.2,0-0.2-0.2,0-0.3c0.2-0.9,0.3-1.7,0.3-2.4c0-0.2,0-0.3,0.2-0.3c0,0,0.2,0,0.2,0.2
		c0.2,0.2,0.5,0.2,0.9,0.3c0.5,0,3.3,0.2,6,0.2L776.6,169L776.6,169z"/>
	<path class="st0" d="M128.6,13.9C65,13.9,13.3,65.6,13.3,129.1S65,244.4,128.6,244.4s115.2-51.7,115.2-115.2
		C243.8,65.7,192.1,13.9,128.6,13.9L128.6,13.9z M128.6,248.7C62.7,248.7,9,195.1,9,129.1C9,63.3,62.6,9.6,128.6,9.6
		c65.8,0,119.6,53.6,119.6,119.6C247.9,195.1,194.4,248.7,128.6,248.7L128.6,248.7z"/>
	<path class="st0" d="M128.6,54.3c-41.3,0-75,33.7-75,75s33.7,75,75,75s75-33.7,75-75C203.4,87.8,169.8,54.3,128.6,54.3L128.6,54.3z
		 M128.6,208.4c-43.7,0-79.1-35.4-79.1-79.1s35.4-79.1,79.1-79.1s79.1,35.6,79.1,79.1C207.7,172.8,172.1,208.4,128.6,208.4
		L128.6,208.4z"/>
	<polygon class="st0" points="130.3,124.8 126,124.8 126.5,51.9 130.6,51.9 	"/>
	<path class="st0" d="M127.3,93.4H75.9c-1,0-1.9-0.9-1.9-1.9s0.9-1.9,1.9-1.9h51.5c1,0,1.9,0.9,1.9,1.9S128.4,93.4,127.3,93.4
		L127.3,93.4z"/>
	<path class="st0" d="M90.4,126c-1,0-1.9-0.9-1.9-1.9v-23.8c0-1,0.9-1.9,1.9-1.9s1.9,0.9,1.9,1.9v23.8C92.3,125.2,91.4,126,90.4,126
		L90.4,126z"/>
	<path class="st0" d="M76.6,126.5c-1,0-1.9-0.9-1.9-1.9v-24.5c0-1,0.9-1.9,1.9-1.9s1.9,0.9,1.9,1.9v24.5
		C78.5,125.7,77.6,126.5,76.6,126.5L76.6,126.5z"/>
	<path class="st0" d="M104.2,126.5c-1,0-1.9-0.9-1.9-1.9v-24c0-1,0.9-1.9,1.9-1.9s1.9,0.9,1.9,1.9v24
		C106.1,125.7,105.2,126.5,104.2,126.5L104.2,126.5z"/>
	<path class="st0" d="M118,126.5c-1,0-1.9-0.9-1.9-1.9v-24c0-1,0.9-1.9,1.9-1.9s1.9,0.9,1.9,1.9v24
		C119.9,125.7,119.1,126.5,118,126.5L118,126.5z"/>
	<path class="st0" d="M127.5,101.7h-51c-1,0-1.9-0.9-1.9-1.9s0.9-1.9,1.9-1.9h51c1,0,1.9,0.9,1.9,1.9
		C129.4,100.8,128.6,101.7,127.5,101.7L127.5,101.7z"/>
	<path class="st0" d="M75.9,93.4c-0.3,0-0.7-0.2-1-0.3c-0.9-0.5-1-1.7-0.5-2.6c0.7-1.2,19.2-27.8,53.9-27.8l0,0c1,0,1.9,0.9,1.9,1.9
		c0,1-0.9,1.9-1.9,1.9l0,0l0,0c-32.8,0-50.8,25.9-51,26.1C76.9,93,76.4,93.4,75.9,93.4L75.9,93.4z"/>
	<path class="st0" d="M183.8,134.5c1.9,0,3.6,0.5,5.4,1.4c2.4,1.2,5.5,1.2,7.9,0c1-0.5,4-1.7,7.3-1.2v-8.8c-2.8,0-4.8,0.9-5.4,1
		c-3.6,1.9-8.3,1.9-11.9,0c-2.2-1.2-4.7-1.2-6.7,0c-3.6,1.9-8.3,1.9-11.9,0c-2.2-1.2-4.7-1.2-6.7,0c-3.6,1.9-8.3,1.9-11.9,0
		c-2.2-1.2-4.7-1.2-6.7,0c-3.6,1.9-8.3,1.9-11.9,0c-2.2-1.2-4.7-1.2-6.7,0c-3.6,1.9-8.3,1.9-11.9,0c-2.2-1.2-4.7-1.2-6.7,0
		c-3.6,1.9-8.3,1.9-11.9,0c-2.2-1.2-4.7-1.2-6.7,0c-3.6,1.9-8.3,1.9-11.9,0c-2.2-1.2-4.7-1.2-6.7,0c-3.6,1.9-8.3,1.9-11.9,0
		c-0.3-0.2-3.1-1.4-3.6-1.6l-1,9c2.2-1.4,5.5,0.7,6.6,1.2c2.4,1.2,5.5,1.2,7.9,0c3.5-1.7,7.3-1.7,10.7,0c2.4,1.2,5.5,1.2,7.9,0
		c3.5-1.7,7.3-1.7,10.7,0c2.4,1.2,5.5,1.2,7.9,0c3.5-1.7,7.3-1.7,10.7,0c2.4,1.2,5.5,1.2,7.9,0c3.5-1.7,7.3-1.7,10.7,0
		c2.4,1.2,5.5,1.2,7.9,0c3.5-1.7,7.3-1.7,10.7,0c2.4,1.2,5.5,1.2,7.9,0c3.5-1.7,7.3-1.7,10.7,0c2.4,1.2,5.5,1.2,7.9,0
		C180.2,134.8,181.9,134.5,183.8,134.5L183.8,134.5z M193.2,141.1c-2.1,0-4.1-0.5-5.9-1.4c-2.2-1.2-4.7-1.2-6.7,0
		c-3.6,1.9-8.3,1.9-11.9,0c-2.2-1.2-4.7-1.2-6.7,0c-3.6,1.9-8.3,1.9-11.9,0c-2.2-1.2-4.7-1.2-6.7,0c-3.6,1.9-8.3,1.9-11.9,0
		c-2.2-1.2-4.7-1.2-6.7,0c-3.6,1.9-8.3,1.9-11.9,0c-2.2-1.2-4.7-1.2-6.7,0c-3.6,1.9-8.3,1.9-11.9,0c-2.2-1.2-4.7-1.2-6.7,0
		c-3.6,1.9-8.3,1.9-11.9,0c-2.2-1.2-4.7-1.2-6.7,0c-3.6,1.9-8.3,1.9-11.9,0c-1-0.5-1-0.7-2.2-0.9l-1.9,0.3l-1.4-16.9l2.1-0.3
		c1.9,0,3.6,0.7,5.4,1.6c2.4,1.2,5.5,1.2,7.9,0c3.5-1.7,7.3-1.7,10.7,0c2.4,1.2,5.5,1.2,7.9,0c3.5-1.7,7.3-1.7,10.7,0
		c2.4,1.2,5.5,1.2,7.9,0c3.5-1.7,7.3-1.7,10.7,0c2.4,1.2,5.5,1.2,7.9,0c3.5-1.7,7.3-1.7,10.7,0c2.4,1.2,5.5,1.2,7.9,0
		c3.5-1.7,7.3-1.7,10.7,0c2.4,1.2,5.5,1.2,7.9,0c3.5-1.7,7.3-1.7,10.7,0c2.4,1.2,5.5,1.2,7.9,0c3.5-1.7,7.3-1.7,10.7,0
		c2.4,1.2,5.5,1.2,7.9,0c1.7-0.9,3.5-1.4,5.4-1.4h3.5l-0.5,16.8l-2.1-0.2c-1.2,0-3.3,0.3-4.3,0.9
		C197.3,140.5,195.2,141.1,193.2,141.1L193.2,141.1z"/>
	<path class="st0" d="M162.6,126c-1,0-1.9-0.9-1.9-1.9V61.2c0-1,0.9-1.9,1.9-1.9c1,0,1.9,0.9,1.9,1.9v62.9
		C164.5,125.2,163.6,126,162.6,126L162.6,126z"/>
	<path class="st0" d="M196.8,97.3h-67.4c-1,0-1.9-0.9-1.9-1.9s0.9-1.9,1.9-1.9h67.4c1,0,1.9,0.9,1.9,1.9
		C198.5,96.5,197.8,97.3,196.8,97.3L196.8,97.3z"/>
	<path class="st0" d="M120.8,175.3c-0.2,2.6-2.2,4.5-4.8,4.3s-4.5-2.2-4.3-4.8c0.2-2.6,2.2-4.5,4.8-4.3
		C119.1,170.6,121,172.8,120.8,175.3L120.8,175.3z"/>
	<path class="st0" d="M108.3,187.9c-0.2,2.6-2.2,4.5-4.8,4.3s-4.5-2.2-4.3-4.8c0.2-2.6,2.2-4.5,4.8-4.3
		C106.4,183.2,108.5,185.3,108.3,187.9L108.3,187.9z"/>
	<path class="st0" d="M135.1,175.3c0.2,2.6,2.2,4.5,4.8,4.3s4.5-2.2,4.3-4.8s-2.2-4.5-4.8-4.3C136.8,170.6,134.9,172.8,135.1,175.3
		L135.1,175.3z"/>
	<path class="st0" d="M147.7,187.9c0.2,2.6,2.2,4.5,4.8,4.3s4.5-2.2,4.3-4.8c-0.2-2.6-2.2-4.5-4.8-4.3
		C149.5,183.2,147.6,185.3,147.7,187.9L147.7,187.9z"/>
	<path class="st0" d="M81.9,192.9c-0.5,0-1-0.2-1.4-0.5c-0.7-0.7-0.7-1.9,0-2.8l46.6-46.5c0.7-0.7,1.9-0.7,2.8,0l46.5,46.5
		c0.7,0.7,0.7,2.1,0,2.8c-0.7,0.7-1.9,0.7-2.8,0l-45.1-45.1l-45.3,45.1C82.9,192.7,82.4,192.9,81.9,192.9L81.9,192.9z"/>
	<path class="st0" d="M108,204.3c-0.5,0-1-0.2-1.4-0.5c-0.7-0.7-0.7-2.1,0-2.8l20.6-20c0.7-0.7,1.9-0.7,2.8,0l20.6,20
		c0.7,0.7,0.9,1.9,0,2.8c-0.7,0.7-1.9,0.9-2.8,0l-19.2-18.8l-19.2,18.8C109,204.1,108.5,204.3,108,204.3L108,204.3z"/>
	<path class="st0" d="M34.6,75.1c1.4-2.4,3.5-4,6-4.8c0.3-0.2,0.7,0,0.7,0.3c0.2,0.7,0.3,1.2,0.5,1.9c0.2,0.3,0,0.5-0.3,0.7
		c-1.7,0.5-3.3,1.7-4.3,3.3c-2.1,3.6-0.7,8.1,2.9,10.2c3.6,2.1,8.3,1,10.4-2.6c1.2-2.1,1.4-4,1.4-4.3L48.9,78l-1.4,2.6
		c-0.2,0.3-0.5,0.3-0.7,0.2l-1.6-0.9c-0.3-0.2-0.3-0.5-0.2-0.7l2.8-4.7c0.2-0.2,0.5-0.3,0.7-0.2c2.1,1.2,4.1,2.4,6.2,3.6
		c0.2,0,0.3,0.3,0.3,0.5c0,0,0.2,3.6-1.9,7.3c-2.9,5.2-9.3,6.9-14.5,4C33.5,86.8,31.6,80.2,34.6,75.1L34.6,75.1z"/>
	<path class="st0" d="M48.2,57.9c-0.2-0.2-0.2-0.5,0-0.9l1.4-1.4c0.2-0.2,0.5-0.2,0.9,0L62.9,68l5.7-5.7c0.2-0.2,0.5-0.2,0.9,0
		l1.2,1.2c0.2,0.2,0.2,0.5,0,0.9l-7.4,7.4c-0.2,0.2-0.5,0.2-0.9,0L48.2,57.9L48.2,57.9z"/>
	<path class="st0" d="M83.1,52.1c3.6-2.1,5-6.7,2.8-10.5c-2.1-3.6-6.9-5-10.5-2.8c-3.6,2.1-4.8,6.9-2.8,10.5
		C74.7,53.1,79.5,54.3,83.1,52.1L83.1,52.1z M73.8,36.4c5.2-2.9,11.6-1.2,14.5,4s1.2,11.6-3.8,14.5C79.3,57.8,72.9,56,70,51
		C67,45.7,68.8,39.3,73.8,36.4L73.8,36.4z"/>
	<path class="st0" d="M108.5,42.1c1.7-0.3,2.8-2.1,2.4-3.8c-0.3-1.7-2.4-2.6-4.3-2.2l-4,0.9l1.4,6.2L108.5,42.1L108.5,42.1z
		 M105.9,33.4c1.9-0.5,2.6-2.1,2.2-3.8s-1.9-2.8-3.6-2.2l-3.8,0.9l1.4,6L105.9,33.4L105.9,33.4z M97.3,26.9c0-0.3,0.2-0.5,0.3-0.7
		l6.4-1.6c3.5-0.9,6.6,0.9,7.3,4c0.5,2.2-0.7,4.1-1.9,5.4c1.7,0.3,4.1,1.2,4.7,3.8c0.7,3.3-1.4,6.2-5,7.1l-6.7,1.6
		c-0.3,0-0.7-0.2-0.7-0.3L97.3,26.9L97.3,26.9z"/>
	<path class="st0" d="M135.1,35.7l-3.5-8.3h-0.2l-3.8,7.9L135.1,35.7L135.1,35.7z M121.6,41.5l9.7-19.7c0.2-0.2,0.3-0.3,0.5-0.3h0.3
		c0.2,0,0.3,0.2,0.5,0.3l8.5,20.2c0.2,0.3,0,0.7-0.5,0.7h-1.9c-0.3,0-0.5-0.2-0.7-0.5l-1.7-4.1l-9.7-0.3c-0.7,1.4-1.2,2.6-1.9,4
		c-0.2,0.2-0.3,0.5-0.7,0.3h-1.9C121.6,42.4,121.5,41.9,121.6,41.5L121.6,41.5z"/>
	<path class="st0" d="M154,25.5c0-0.3,0.3-0.5,0.7-0.3l1.9,0.5c0.3,0,0.5,0.3,0.3,0.7l-4.8,16.8l7.8,2.2c0.3,0.2,0.5,0.3,0.3,0.7
		l-0.5,1.6c0,0.3-0.3,0.5-0.7,0.3L148.8,45c-0.3-0.2-0.5-0.3-0.3-0.7L154,25.5L154,25.5z"/>
	<path class="st0" d="M188.3,40.5c0.2-0.2,0.5-0.3,0.9-0.2l1.6,1c0.2,0.2,0.3,0.5,0.2,0.9l-11.1,16.1c-0.2,0.2-0.5,0.3-0.9,0.2
		l-1.6-1c-0.2-0.2-0.3-0.5-0.2-0.9L188.3,40.5L188.3,40.5z"/>
	<path class="st0" d="M200.4,49.5c0.2-0.3,0.5-0.5,0.9-0.2l1.4,1.6c0.2,0.2,0.2,0.5,0.2,0.5l-6.2,14.9l0.2,0.2l15-5.4
		c0.2,0,0.3,0,0.5,0.2l1.4,1.6c0.3,0.3,0.2,0.7-0.2,0.9l-20.7,7.1c-0.2,0-0.3,0-0.5-0.2l-0.2-0.2c-0.2-0.2-0.2-0.3-0.2-0.5
		L200.4,49.5L200.4,49.5z"/>
	<path class="st0" d="M214.1,83l5.4-10.7c0.2-0.3,0.7-0.3,1,0l1,1.9c0.2,0.2,0,0.3,0,0.5l-4.1,8.3l9.2,1.2c0.2,0,0.3,0.2,0.5,0.3
		l1,1.9c0.2,0.3,0,0.9-0.5,0.9l-11.9-1.6l-8.3,4.5c-0.3,0.2-0.7,0-0.7-0.2l-0.9-1.7c-0.2-0.3,0-0.7,0.2-0.7L214.1,83L214.1,83z"/>
	<path class="st0" d="M52.5,171.3c0.2-0.2,0.5-0.2,0.7,0.2l6.2,10c0.2,0.3,0,0.7-0.2,0.7l-1.4,0.9c-0.2,0.2-0.5,0.2-0.7-0.2l-5-7.9
		l-5.2,3.3l4.1,6.7c0.2,0.2,0,0.7-0.2,0.7l-1.4,0.9c-0.3,0.2-0.7,0-0.7-0.2l-4.1-6.7l-5.4,3.5l5,7.9c0.2,0.3,0,0.7-0.2,0.7l-1.4,0.9
		c-0.2,0.2-0.7,0.2-0.9-0.2l-6.2-10c-0.2-0.3,0-0.7,0.2-0.7L52.5,171.3L52.5,171.3z"/>
	<path class="st0" d="M57,205.3c3.1,2.9,7.6,2.8,10.7-0.3c2.9-3.1,2.8-7.6-0.3-10.5l-2.9-2.6l-10.4,11.1L57,205.3L57,205.3z
		 M63.9,188c0.2-0.2,0.5-0.2,0.7,0l5,4.7c4.1,4,4.5,10.5,0.5,14.7c-4,4.1-10.5,4.3-14.7,0.5l-5-4.7c-0.2-0.2-0.2-0.5,0-0.7L63.9,188
		L63.9,188z"/>
	<path class="st0" d="M82.4,203.8c0.2-0.3,0.5-0.3,0.7-0.2l1.7,0.9c0.3,0.2,0.3,0.5,0.2,0.7L79.5,216c-1.4,2.6-0.7,5.5,2.1,6.9
		c2.8,1.4,5.5,0.2,6.7-2.4l5.5-10.9c0.2-0.3,0.5-0.3,0.7-0.2l1.7,0.9c0.3,0.2,0.3,0.5,0.2,0.7l-5.7,11.1c-2.1,4-6.7,5.5-10.9,3.5
		c-4.1-2.1-5.5-6.7-3.5-10.7L82.4,203.8L82.4,203.8z"/>
	<path class="st0" d="M113.7,214.5c2.9,0.5,4.8,1.9,6.6,4.1c0.2,0.3,0.2,0.7-0.2,0.9l-1.6,1c-0.2,0.2-0.5,0.2-0.7-0.2
		c-1.2-1.4-2.8-2.6-4.7-2.9c-4.1-0.9-7.9,2.1-8.8,6c-0.9,4.1,1.7,8.1,5.9,9c2.1,0.3,3.8-0.2,5.4-0.9c0.3-0.2,0.5,0,0.7,0.2l1,1.6
		c0.2,0.2,0,0.7-0.2,0.7c-2.4,1.6-5,1.9-7.6,1.4c-5.9-1.2-9.5-6.7-8.5-12.4C102.3,217.2,107.8,213.4,113.7,214.5L113.7,214.5z"/>
	<path class="st0" d="M139.1,229.3l-4.1-7.8h-0.2l-3.1,8.3L139.1,229.3L139.1,229.3z M126.1,236.4l7.6-20.6c0-0.2,0.3-0.3,0.5-0.3
		h0.3c0.2,0,0.3,0.2,0.5,0.3l10.4,19.2c0.2,0.3,0,0.7-0.5,0.9l-1.9,0.2c-0.3,0-0.5-0.2-0.7-0.3l-2.1-4l-9.7,0.7
		c-0.5,1.4-1,2.8-1.6,4.1c0,0.2-0.3,0.5-0.7,0.5l-1.9,0.2C126.3,237.3,126.1,236.8,126.1,236.4L126.1,236.4z"/>
	<path class="st0" d="M152.4,215.5l-4.7,1.4c-0.3,0.2-0.7-0.2-0.7-0.3l-0.5-1.6c0-0.3,0-0.7,0.3-0.7l12.3-3.6
		c0.3-0.2,0.7,0.2,0.7,0.3l0.5,1.6c0,0.3,0,0.7-0.3,0.7l-4.7,1.4l5,16.6c0.2,0.3-0.2,0.7-0.3,0.7l-1.9,0.5c-0.3,0-0.7-0.2-0.7-0.3
		L152.4,215.5L152.4,215.5z"/>
	<path class="st0" d="M165.9,208.1c-0.2-0.3,0-0.7,0.2-0.7l1.7-0.9c0.3-0.2,0.7,0,0.7,0.2l8.8,17.4c0.2,0.3,0,0.7-0.2,0.7l-1.7,0.9
		c-0.3,0.2-0.7,0-0.7-0.2L165.9,208.1L165.9,208.1z"/>
	<path class="st0" d="M194.7,210.2c3.3-2.8,3.6-7.6,1-10.9c-2.8-3.3-7.6-3.6-10.9-1c-3.3,2.8-3.6,7.6-0.9,10.9
		C186.6,212.4,191.6,212.9,194.7,210.2L194.7,210.2z M183,196.2c4.5-3.8,11.2-3.1,15,1.4c3.8,4.5,3.1,11.2-1.4,15
		c-4.5,3.8-11.2,3.1-15-1.4C178,206.5,178.5,200,183,196.2L183,196.2z"/>
	<path class="st0" d="M195.8,184.4c-0.2-0.2-0.3-0.5-0.2-0.7l0.3-0.7l19.3-2.6l0,0l-11.7-7.6c-0.2-0.2-0.3-0.5-0.2-0.7l1-1.6
		c0.2-0.2,0.5-0.3,0.9-0.2l16.6,10.9c0.2,0.2,0.3,0.5,0.2,0.7l-0.3,0.7l-19.7,2.4l0,0l12.1,7.8c0.2,0.2,0.3,0.5,0.2,0.7l-1,1.6
		c-0.2,0.2-0.5,0.3-0.9,0.2L195.8,184.4L195.8,184.4z"/>
</g>
</svg>
